<svg width="15" height="10" viewBox="0 0 15 10" fill="none" xmlns="http://www.w3.org/2000/svg">
<path fill-rule="evenodd" clip-rule="evenodd" d="M8.92147 8.88899C8.64022 9.16989 8.25897 9.32767 7.86147 9.32767C7.46397 9.32767 7.08272 9.16989 6.80147 8.88899L1.14347 3.23299C0.862211 2.9516 0.704252 2.57 0.704346 2.17214C0.70444 1.77428 0.862578 1.39275 1.14397 1.11149C1.42537 0.830229 1.80697 0.67227 2.20483 0.672363C2.60268 0.672457 2.98421 0.830596 3.26547 1.11199L7.86147 5.70799L12.4575 1.11199C12.7402 0.838617 13.1191 0.687245 13.5124 0.690476C13.9057 0.693706 14.282 0.851282 14.5602 1.12926C14.8385 1.40725 14.9964 1.78339 15 2.17669C15.0036 2.56998 14.8526 2.94896 14.5795 3.23199L8.92247 8.88999L8.92147 8.88899Z" fill="white"/>
</svg>
