<svg width="26" height="26" viewBox="0 0 26 26" fill="none" xmlns="http://www.w3.org/2000/svg">
<path d="M19.8095 25.0713H7.42857V8.82129L16.0952 0.0712891L17.6429 1.63379C17.7873 1.77962 17.9062 1.97754 17.9994 2.22754C18.0927 2.47754 18.1389 2.71712 18.1381 2.94629V3.38379L16.7762 8.82129H23.5238C24.1841 8.82129 24.7619 9.07129 25.2571 9.57129C25.7524 10.0713 26 10.6546 26 11.3213V13.8213C26 13.9671 25.9847 14.1234 25.9542 14.29C25.9237 14.4567 25.877 14.613 25.8143 14.7588L22.1 23.5713C21.9143 23.988 21.6048 24.3421 21.1714 24.6338C20.7381 24.9255 20.2841 25.0713 19.8095 25.0713ZM4.95238 8.82129V25.0713H0V8.82129H4.95238Z" fill="white"/>
</svg>
