<svg width="28" height="28" viewBox="0 0 28 28" fill="none" xmlns="http://www.w3.org/2000/svg">
<path d="M0 14C0 23.29 6.27 28 14 28C21.73 28 28 23.26 28 14C28 4.57 21.73 0 14 0C6.27 0 0 4.43 0 14Z" fill="#F3AD61"/>
<path d="M17.89 6.32L18.51 6.36C18.6449 6.36883 18.7802 6.34875 18.9067 6.30112C19.0333 6.25348 19.1482 6.17939 19.2438 6.08378C19.3394 5.98817 19.4135 5.87326 19.4611 5.74671C19.5088 5.62017 19.5288 5.48492 19.52 5.35L19.48 4.74C19.4653 4.48899 19.3898 4.24532 19.26 4.03C19.0702 3.72981 18.7808 3.5061 18.4424 3.3982C18.1041 3.29029 17.7385 3.30509 17.41 3.44C16.61 3.78 16.27 4.72 16.65 5.49C16.88 5.99 17.37 6.28 17.89 6.32ZM24.92 12.61L24.96 11.99C24.9688 11.8551 24.9488 11.7198 24.9011 11.5933C24.8535 11.4667 24.7794 11.3518 24.6838 11.2562C24.5882 11.1606 24.4733 11.0865 24.3467 11.0389C24.2202 10.9912 24.0849 10.9712 23.95 10.98L23.34 11.02C23.1 11.03 22.85 11.11 22.63 11.24C22.3298 11.4298 22.1061 11.7192 21.9982 12.0576C21.8903 12.3959 21.9051 12.7615 22.04 13.09C22.38 13.89 23.32 14.23 24.09 13.85C24.59 13.62 24.88 13.13 24.92 12.61ZM8.62 22.52L8.67 21.75C8.71 21.11 9.08 20.51 9.7 20.2C9.92692 20.0856 10.175 20.0193 10.4287 20.005C10.6824 19.9907 10.9363 20.0289 11.1746 20.1171C11.4129 20.2053 11.6305 20.3416 11.8138 20.5176C11.9971 20.6936 12.1422 20.9055 12.24 21.14C12.59 21.98 12.28 22.96 11.51 23.44C11.23 23.61 10.93 23.7 10.63 23.72L9.87 23.77C9.16 23.82 8.57 23.23 8.62 22.52ZM18.4 13.19L18.43 12.73C18.53 11.22 17.28 9.97 15.76 10.06L15.31 10.09C14.86 10.11 14.41 10.24 13.99 10.49C13.3873 10.8477 12.9328 11.4097 12.709 12.0738C12.4851 12.738 12.5068 13.4604 12.77 14.11C13.42 15.7 15.27 16.37 16.78 15.62C17.76 15.15 18.34 14.2 18.4 13.19ZM5.65 7L5.68 7.42C5.74 8.33 6.27 9.19 7.15 9.63C8.52 10.31 10.2 9.7 10.79 8.26C11.28 7.05 10.81 5.63 9.68 4.97C9.31452 4.75581 8.90302 4.63236 8.48 4.61L8.07 4.58C6.7 4.49 5.57 5.63 5.65 7ZM22.26 20.82L22.28 21.18C22.36 22.35 21.38 23.33 20.21 23.25L19.86 23.23C19.51 23.21 19.16 23.11 18.83 22.92C18.3622 22.6422 18.0092 22.2062 17.835 21.6908C17.6607 21.1754 17.6767 20.6147 17.88 20.11C17.9986 19.8205 18.1757 19.5587 18.4002 19.3408C18.6247 19.123 18.8917 18.9539 19.1846 18.844C19.4775 18.7342 19.79 18.686 20.1023 18.7025C20.4147 18.719 20.7203 18.7999 21 18.94C21.76 19.3 22.21 20.03 22.26 20.82ZM3.87 14.92L3.91 15.54C3.94 16.06 4.24 16.55 4.74 16.78C5.51 17.16 6.45 16.82 6.79 16.02C7.07 15.35 6.82 14.56 6.2 14.17C5.98468 14.0402 5.74101 13.9647 5.49 13.95L4.88 13.91C4.74508 13.9012 4.60983 13.9212 4.48329 13.9689C4.35674 14.0165 4.24183 14.0906 4.14622 14.1862C4.05061 14.2818 3.97652 14.3967 3.92888 14.5233C3.88125 14.6498 3.86117 14.7851 3.87 14.92Z" fill="#6D4534"/>
</svg>
