<svg width="20" height="18" viewBox="0 0 20 18" fill="none" xmlns="http://www.w3.org/2000/svg">
<path d="M1.87923 10.2405L8.16334 16.5246C9.02842 17.3909 9.46225 17.8235 10 17.8235C10.5377 17.8235 10.9716 17.3909 11.8367 16.5246L18.1208 10.2405C19.2248 9.13638 19.7782 8.58305 19.947 7.86475C20.1159 7.14646 19.8691 6.40608 19.3755 4.92402L18.9781 3.72903C18.4065 2.01447 18.1208 1.15719 17.4401 0.667501C16.7595 0.176513 15.8555 0.176514 14.0487 0.176514H5.9513C4.14452 0.176514 3.24048 0.176513 2.56115 0.667501C1.87922 1.15719 1.59346 2.01447 1.02195 3.72903L0.624479 4.92402C0.130894 6.40478 -0.115898 7.14646 0.0529597 7.86475C0.221818 8.58305 0.775153 9.13509 1.87923 10.2405Z" fill="white"/>
</svg>
