<svg width="44" height="60" viewBox="0 0 44 60" fill="none" xmlns="http://www.w3.org/2000/svg">
<path d="M0 8.99917V50.9991C0 51.7948 0.309047 52.5579 0.859154 53.1205C1.40926 53.6831 2.15536 53.9991 2.93333 53.9991H11.7333V47.9991H5.86667V11.9992H11.7333V5.99917H2.93333C2.15536 5.99917 1.40926 6.31524 0.859154 6.87785C0.309047 7.44046 0 8.20352 0 8.99917ZM41.7765 6.08917L18.3099 0.0891714C17.8775 -0.0211063 17.4263 -0.0292097 16.9905 0.0654764C16.5547 0.160162 16.1456 0.35515 15.7945 0.635638C15.4433 0.916126 15.1592 1.27474 14.9638 1.68427C14.7684 2.0938 14.6668 2.54348 14.6667 2.99917V56.9991C14.6656 57.4552 14.7665 57.9055 14.9616 58.3156C15.1566 58.7258 15.4408 59.0849 15.7922 59.3656C16.1437 59.6464 16.5532 59.8413 16.9895 59.9355C17.4258 60.0296 17.8775 60.0206 18.3099 59.9091L41.7765 53.9091C42.4114 53.7472 42.9751 53.3728 43.378 52.8455C43.7809 52.3182 43.9998 51.6683 44 50.9991V8.99917C43.9998 8.32998 43.7809 7.68007 43.378 7.15278C42.9751 6.62549 42.4114 6.25111 41.7765 6.08917ZM29.3333 30.5632C29.2995 31.3356 28.9757 32.0649 28.4293 32.5993C27.8829 33.1337 27.156 33.432 26.4 33.432C25.644 33.432 24.9171 33.1337 24.3707 32.5993C23.8243 32.0649 23.5005 31.3356 23.4667 30.5632V29.4322C23.4671 28.6365 23.7765 27.8736 24.3269 27.3113C24.8772 26.7489 25.6235 26.4333 26.4015 26.4337C27.1794 26.4341 27.9254 26.7505 28.4752 27.3134C29.025 27.8763 29.3337 28.6395 29.3333 29.4352V30.5632Z" fill="#C6C6C6"/>
</svg>
