<svg width="20" height="16" viewBox="0 0 20 16" fill="none" xmlns="http://www.w3.org/2000/svg">
<path d="M19.4634 7.56326C18.5796 3.62895 17.2496 1.52907 15.2765 0.955476C14.8618 0.83569 14.4316 0.775846 13.9994 0.777818C13.4281 0.777818 12.9306 0.914856 12.4043 1.0601C11.7701 1.2353 11.0496 1.43429 9.99914 1.43429C8.94866 1.43429 8.22779 1.23571 7.59234 1.06051C7.06564 0.914856 6.56853 0.777818 5.99891 0.777818C5.55198 0.776292 5.107 0.835945 4.67675 0.955065C2.71414 1.52619 1.3849 3.62526 0.488178 7.5608C-0.476044 11.7959 -0.00143361 14.4697 1.81909 15.0901C2.06864 15.1767 2.3312 15.2214 2.5958 15.2222C3.84295 15.2222 4.84301 14.1994 5.52638 13.3619C6.29851 12.4142 7.20231 11.9333 9.99914 11.9333C12.4972 11.9333 13.531 12.2669 14.424 13.3619C14.9853 14.0504 15.5157 14.5321 16.0449 14.8353C16.7487 15.2382 17.4521 15.3277 18.135 15.0967C19.2109 14.7352 19.8276 13.7796 19.9685 12.2558C20.0756 11.0873 19.9105 9.55236 19.4634 7.56326ZM7.99903 7.34252H6.66562V8.65546C6.66562 8.82957 6.59537 8.99654 6.47034 9.11966C6.34531 9.24277 6.17573 9.31193 5.99891 9.31193C5.82209 9.31193 5.65251 9.24277 5.52748 9.11966C5.40245 8.99654 5.33221 8.82957 5.33221 8.65546V7.34252H3.9988C3.82198 7.34252 3.6524 7.27336 3.52737 7.15025C3.40233 7.02713 3.33209 6.86016 3.33209 6.68605C3.33209 6.51194 3.40233 6.34497 3.52737 6.22186C3.6524 6.09874 3.82198 6.02958 3.9988 6.02958H5.33221V4.71664C5.33221 4.54253 5.40245 4.37556 5.52748 4.25245C5.65251 4.12933 5.82209 4.06017 5.99891 4.06017C6.17573 4.06017 6.34531 4.12933 6.47034 4.25245C6.59537 4.37556 6.66562 4.54253 6.66562 4.71664V6.02958H7.99903C8.17585 6.02958 8.34543 6.09874 8.47046 6.22186C8.59549 6.34497 8.66573 6.51194 8.66573 6.68605C8.66573 6.86016 8.59549 7.02713 8.47046 7.15025C8.34543 7.27336 8.17585 7.34252 7.99903 7.34252ZM11.4992 7.50664C11.3344 7.50664 11.1733 7.45851 11.0362 7.36834C10.8992 7.27818 10.7924 7.15002 10.7293 7.00008C10.6662 6.85013 10.6497 6.68514 10.6819 6.52596C10.714 6.36678 10.7934 6.22057 10.9099 6.10581C11.0265 5.99105 11.175 5.91289 11.3366 5.88123C11.4983 5.84957 11.6659 5.86582 11.8181 5.92793C11.9704 5.99004 12.1006 6.09521 12.1922 6.23016C12.2837 6.3651 12.3326 6.52375 12.3326 6.68605C12.3326 6.90368 12.2448 7.1124 12.0885 7.26629C11.9322 7.42018 11.7203 7.50664 11.4992 7.50664ZM13.3327 9.31193C13.1678 9.31193 13.0065 9.26375 12.8694 9.17349C12.7324 9.08324 12.6255 8.95496 12.5625 8.80489C12.4995 8.65483 12.4831 8.48973 12.5155 8.3305C12.5478 8.17127 12.6274 8.02505 12.7441 7.91038C12.8609 7.7957 13.0096 7.7177 13.1714 7.68627C13.3332 7.65484 13.5008 7.67139 13.653 7.73381C13.8053 7.79623 13.9353 7.90173 14.0266 8.03694C14.1179 8.17216 14.1665 8.33101 14.166 8.49339C14.1655 8.71067 14.0775 8.91887 13.9212 9.07231C13.765 9.22576 13.5533 9.31193 13.3327 9.31193ZM13.3327 5.70135C13.1678 5.70135 13.0067 5.65322 12.8697 5.56305C12.7326 5.47288 12.6258 5.34473 12.5627 5.19478C12.4996 5.04484 12.4831 4.87985 12.5153 4.72067C12.5475 4.56149 12.6268 4.41528 12.7434 4.30051C12.8599 4.18575 13.0084 4.1076 13.1701 4.07594C13.3317 4.04427 13.4993 4.06053 13.6516 4.12263C13.8039 4.18474 13.934 4.28992 14.0256 4.42486C14.1172 4.55981 14.166 4.71846 14.166 4.88076C14.166 5.09839 14.0782 5.30711 13.922 5.461C13.7657 5.61489 13.5537 5.70135 13.3327 5.70135ZM15.1661 7.50664C15.0013 7.50664 14.8402 7.45851 14.7031 7.36834C14.5661 7.27818 14.4592 7.15002 14.3962 7.00008C14.3331 6.85013 14.3166 6.68514 14.3487 6.52596C14.3809 6.36678 14.4603 6.22057 14.5768 6.10581C14.6934 5.99105 14.8419 5.91289 15.0035 5.88123C15.1652 5.84957 15.3327 5.86582 15.485 5.92793C15.6373 5.99004 15.7675 6.09521 15.859 6.23016C15.9506 6.3651 15.9995 6.52375 15.9995 6.68605C15.9995 6.90368 15.9117 7.1124 15.7554 7.26629C15.5991 7.42018 15.3871 7.50664 15.1661 7.50664Z" fill="white"/>
</svg>
