<svg width="18" height="18" viewBox="0 0 18 18" fill="none" xmlns="http://www.w3.org/2000/svg">
<path fill-rule="evenodd" clip-rule="evenodd" d="M4.06179 0.631201C4.1484 0.402187 4.31787 0.214057 4.53662 0.104077C4.75538 -0.00590275 5.00746 -0.0297084 5.24293 0.0373756L9.93233 1.37348C10.1681 1.44072 10.3699 1.59415 10.4978 1.80331C10.6256 2.01247 10.6702 2.26206 10.6225 2.50253L9.26037 9.40966C9.07632 10.3419 8.56725 11.1786 7.82387 11.7705C7.08048 12.3625 6.15108 12.6712 5.20126 12.6418L4.32615 15.7112L5.28981 15.986C5.539 16.057 5.74979 16.224 5.87581 16.4504C6.00183 16.6768 6.03275 16.944 5.96177 17.1932C5.8908 17.4424 5.72374 17.6532 5.49735 17.7792C5.27096 17.9052 5.00378 17.9361 4.75459 17.8652L2.89628 17.3338C2.86549 17.3266 2.83507 17.318 2.80512 17.3078L0.944209 16.7778C0.695019 16.7066 0.484299 16.5394 0.358404 16.3129C0.232509 16.0864 0.201752 15.8191 0.2729 15.5699C0.344048 15.3208 0.511272 15.11 0.737785 14.9841C0.964298 14.8582 1.23155 14.8275 1.48074 14.8986L2.447 15.1747L3.32212 12.1053C2.49964 11.6295 1.87278 10.8772 1.55321 9.98244C1.23363 9.08763 1.2421 8.10843 1.5771 7.21928L4.06179 0.631201ZM4.68817 4.50409L8.04016 5.50161L8.53241 3.0052L5.5724 2.16134L4.68817 4.50409ZM12.9093 12.7356C11.8671 12.7356 10.8659 12.3302 10.1173 11.6053C10.4748 11.0281 10.725 10.391 10.8556 9.7248L11.7646 5.11615L13.6906 4.65645L12.8689 2.24859L12.2673 2.39965C12.2898 1.72025 12.0459 1.05895 11.5875 0.556973L13.2648 0.136347C13.5025 0.0764592 13.7541 0.108166 13.9695 0.225172C14.1849 0.342177 14.3485 0.535923 14.4277 0.767937L16.7014 7.43154C17.008 8.33057 16.9855 9.30921 16.6381 10.1932C16.2906 11.0773 15.6407 11.8093 14.804 12.259L15.5802 15.3544L16.5504 15.1109C16.8016 15.0479 17.0676 15.0872 17.2899 15.2203C17.5121 15.3534 17.6724 15.5694 17.7354 15.8206C17.7984 16.0719 17.7591 16.3379 17.626 16.5601C17.4929 16.7824 17.2769 16.9426 17.0257 17.0057L15.1465 17.4771C15.1212 17.4847 15.0956 17.4912 15.0697 17.4966L13.1827 17.9706C12.9315 18.0337 12.6655 17.9943 12.4432 17.8612C12.221 17.7281 12.0607 17.5122 11.9977 17.2609C11.9347 17.0097 11.974 16.7436 12.1071 16.5214C12.2402 16.2992 12.4562 16.1389 12.7074 16.0759L13.6854 15.8297L12.9093 12.7356Z" fill="#171B2A"/>
</svg>
