<svg width="20" height="20" viewBox="0 0 20 20" fill="none" xmlns="http://www.w3.org/2000/svg">
<path d="M10 0C8.02219 0 6.08879 0.58649 4.4443 1.6853C2.79981 2.78412 1.51809 4.3459 0.761209 6.17316C0.00433281 8.00043 -0.1937 10.0111 0.192152 11.9509C0.578004 13.8907 1.53041 15.6725 2.92894 17.0711C4.32746 18.4696 6.10929 19.422 8.0491 19.8078C9.98891 20.1937 11.9996 19.9957 13.8268 19.2388C15.6541 18.4819 17.2159 17.2002 18.3147 15.5557C19.4135 13.9112 20 11.9778 20 10C20 7.34783 18.9464 4.8043 17.0711 2.92893C15.1957 1.05357 12.6522 0 10 0ZM9.8625 16.1562C9.65854 16.1562 9.45916 16.0958 9.28957 15.9824C9.11998 15.8691 8.9878 15.7081 8.90975 15.5196C8.8317 15.3312 8.81128 15.1239 8.85107 14.9238C8.89086 14.7238 8.98908 14.54 9.1333 14.3958C9.27752 14.2516 9.46127 14.1534 9.66132 14.1136C9.86136 14.0738 10.0687 14.0942 10.2571 14.1722C10.4456 14.2503 10.6066 14.3825 10.72 14.5521C10.8333 14.7217 10.8938 14.921 10.8938 15.125C10.8938 15.3985 10.7851 15.6608 10.5917 15.8542C10.3983 16.0476 10.136 16.1562 9.8625 16.1562ZM10.7188 11.1187V12.1937C10.7174 12.4124 10.6326 12.6222 10.4815 12.7803C10.3304 12.9383 10.1246 13.0326 9.90625 13.0437H9.8375C9.72699 13.0479 9.61675 13.0302 9.51314 12.9915C9.40953 12.9529 9.3146 12.8941 9.23383 12.8185C9.15306 12.743 9.08805 12.6522 9.04255 12.5514C8.99706 12.4506 8.97198 12.3418 8.96875 12.2312V10.5062C8.95845 10.406 8.96861 10.3048 8.99861 10.2086C9.02862 10.1125 9.07784 10.0234 9.1433 9.94687C9.20875 9.8703 9.28908 9.80784 9.37941 9.76325C9.46973 9.71867 9.56817 9.69289 9.66875 9.6875C10.65 9.6125 12.2813 9.25 12.2813 7.65625C12.2813 6.5125 11.4 5.7375 10.1375 5.7375C9.65891 5.7454 9.18768 5.85674 8.75616 6.06387C8.32464 6.271 7.94302 6.56902 7.6375 6.9375C7.52195 7.06028 7.3725 7.14592 7.20815 7.18353C7.04379 7.22115 6.87197 7.20903 6.71452 7.14873C6.55707 7.08843 6.42111 6.98267 6.32392 6.8449C6.22674 6.70712 6.17273 6.54355 6.16875 6.375C6.17244 6.13938 6.26903 5.91476 6.4375 5.75C6.90165 5.21265 7.47798 4.78362 8.12589 4.49314C8.77381 4.20266 9.47754 4.0578 10.1875 4.06875C12.5 4.06875 14.1125 5.50625 14.1125 7.56875C14.1125 9.475 12.8813 10.75 10.7188 11.1187Z" fill="white"/>
</svg>
