<svg width="20" height="22" viewBox="0 0 20 22" fill="none" xmlns="http://www.w3.org/2000/svg">
<path d="M11.4329 1.08115C11.0395 0.736253 10.5295 0.545456 10.0007 0.545456C9.47197 0.545456 8.96189 0.736253 8.56857 1.08115L0.711428 7.97174C0.487772 8.16769 0.30885 8.40737 0.186284 8.6752C0.0637177 8.94304 0.000248928 9.23304 0 9.52638V19.3631C0 19.9178 0.225765 20.4498 0.627628 20.842C1.02949 21.2342 1.57454 21.4545 2.14286 21.4545H5C5.56832 21.4545 6.11337 21.2342 6.51523 20.842C6.91709 20.4498 7.14286 19.9178 7.14286 19.3631V13.7859C7.14286 13.601 7.21811 13.4237 7.35207 13.293C7.48602 13.1622 7.6677 13.0888 7.85714 13.0888H12.1429C12.3323 13.0888 12.514 13.1622 12.6479 13.293C12.7819 13.4237 12.8571 13.601 12.8571 13.7859V19.3631C12.8571 19.9178 13.0829 20.4498 13.4848 20.842C13.8866 21.2342 14.4317 21.4545 15 21.4545H17.8571C18.4255 21.4545 18.9705 21.2342 19.3724 20.842C19.7742 20.4498 20 19.9178 20 19.3631V9.52638C19.9999 9.23315 19.9367 8.94321 19.8144 8.67538C19.6921 8.40755 19.5134 8.16782 19.29 7.97174L11.4329 1.08115Z" fill="white"/>
</svg>
