<svg width="18" height="18" viewBox="0 0 18 18" fill="none" xmlns="http://www.w3.org/2000/svg">
<path d="M12 5H12.01M3 10L5.644 7.356C5.75637 7.24352 5.88981 7.15429 6.03669 7.09341C6.18357 7.03253 6.34101 7.0012 6.5 7.0012C6.65899 7.0012 6.81643 7.03253 6.96331 7.09341C7.11019 7.15429 7.24363 7.24352 7.356 7.356L11 11M10 10L11.644 8.356C11.7564 8.24352 11.8898 8.15429 12.0367 8.09341C12.1836 8.03253 12.341 8.0012 12.5 8.0012C12.659 8.0012 12.8164 8.03253 12.9633 8.09341C13.1102 8.15429 13.2436 8.24352 13.356 8.356L15 10M1 5V3C1 2.46957 1.21071 1.96086 1.58579 1.58579C1.96086 1.21071 2.46957 1 3 1H5M1 13V15C1 15.5304 1.21071 16.0391 1.58579 16.4142C1.96086 16.7893 2.46957 17 3 17H5M13 1H15C15.5304 1 16.0391 1.21071 16.4142 1.58579C16.7893 1.96086 17 2.46957 17 3V5M13 17H15C15.5304 17 16.0391 16.7893 16.4142 16.4142C16.7893 16.0391 17 15.5304 17 15V13" stroke="#fff" stroke-width="2" stroke-linecap="round" stroke-linejoin="round"/>
</svg>
