<svg width="16" height="16" viewBox="0 0 16 16" fill="none" xmlns="http://www.w3.org/2000/svg">
<path d="M7.2 7.184C7.2 6.97183 7.28429 6.76834 7.43431 6.61831C7.58434 6.46829 7.78783 6.384 8 6.384C8.21217 6.384 8.41566 6.46829 8.56569 6.61831C8.71571 6.76834 8.8 6.97183 8.8 7.184V11.984C8.8 12.1962 8.71571 12.3997 8.56569 12.5497C8.41566 12.6997 8.21217 12.784 8 12.784C7.78783 12.784 7.58434 12.6997 7.43431 12.5497C7.28429 12.3997 7.2 12.1962 7.2 11.984V7.184ZM8 3.2408C7.78783 3.2408 7.58434 3.32509 7.43431 3.47511C7.28429 3.62514 7.2 3.82863 7.2 4.0408C7.2 4.25297 7.28429 4.45646 7.43431 4.60649C7.58434 4.75651 7.78783 4.8408 8 4.8408C8.21217 4.8408 8.41566 4.75651 8.56569 4.60649C8.71571 4.45646 8.8 4.25297 8.8 4.0408C8.8 3.82863 8.71571 3.62514 8.56569 3.47511C8.41566 3.32509 8.21217 3.2408 8 3.2408Z" fill="white"/>
<path fill-rule="evenodd" clip-rule="evenodd" d="M8 0C3.5816 0 0 3.5816 0 8C0 12.4184 3.5816 16 8 16C12.4184 16 16 12.4184 16 8C16 3.5816 12.4184 0 8 0ZM1.6 8C1.6 9.69739 2.27428 11.3253 3.47452 12.5255C4.67475 13.7257 6.30261 14.4 8 14.4C9.69739 14.4 11.3253 13.7257 12.5255 12.5255C13.7257 11.3253 14.4 9.69739 14.4 8C14.4 6.30261 13.7257 4.67475 12.5255 3.47452C11.3253 2.27428 9.69739 1.6 8 1.6C6.30261 1.6 4.67475 2.27428 3.47452 3.47452C2.27428 4.67475 1.6 6.30261 1.6 8Z" fill="white"/>
</svg>
