<svg width="20" height="20" viewBox="0 0 20 20" fill="none" xmlns="http://www.w3.org/2000/svg">
<path d="M3.49264 0.869568C3.88963 0.869568 4.27036 1.02989 4.55107 1.31527C4.83179 1.60066 4.98949 1.98772 4.98949 2.39131V17.6087C4.98949 18.0123 4.83179 18.3993 4.55107 18.6847C4.27036 18.9701 3.88963 19.1304 3.49264 19.1304H1.49685C1.09986 19.1304 0.719129 18.9701 0.438416 18.6847C0.157703 18.3993 0 18.0123 0 17.6087V2.39131C0 1.98772 0.157703 1.60066 0.438416 1.31527C0.719129 1.02989 1.09986 0.869568 1.49685 0.869568H3.49264ZM9.48003 0.869568C9.87702 0.869568 10.2577 1.02989 10.5385 1.31527C10.8192 1.60066 10.9769 1.98772 10.9769 2.39131V17.6087C10.9769 18.0123 10.8192 18.3993 10.5385 18.6847C10.2577 18.9701 9.87702 19.1304 9.48003 19.1304H7.48423C7.08724 19.1304 6.70651 18.9701 6.4258 18.6847C6.14509 18.3993 5.98739 18.0123 5.98739 17.6087V2.39131C5.98739 1.98772 6.14509 1.60066 6.4258 1.31527C6.70651 1.02989 7.08724 0.869568 7.48423 0.869568H9.48003ZM16.7457 4.03884L19.953 16.7393C20.0019 16.9329 20.0128 17.1343 19.9851 17.3322C19.9574 17.5301 19.8916 17.7204 19.7915 17.8925C19.6914 18.0645 19.559 18.2148 19.4018 18.3348C19.2446 18.4547 19.0657 18.5421 18.8752 18.5917L17.0032 19.0787C16.8128 19.1284 16.6146 19.1395 16.42 19.1113C16.2253 19.0832 16.0381 19.0163 15.8689 18.9146C15.6997 18.8128 15.5518 18.6782 15.4338 18.5184C15.3158 18.3585 15.2299 18.1766 15.181 17.983L11.9738 5.28667C11.9249 5.09309 11.914 4.89162 11.9417 4.69376C11.9694 4.49589 12.0351 4.30552 12.1352 4.1335C12.2353 3.96148 12.3677 3.81118 12.5249 3.6912C12.6822 3.57121 12.8611 3.48388 13.0515 3.43421L14.9236 2.94421C15.3081 2.84438 15.7159 2.90366 16.0574 3.10905C16.399 3.31445 16.6466 3.64818 16.7457 4.03884Z" fill="white"/>
</svg>
