<svg width="18" height="18" viewBox="0 0 18 18" fill="none" xmlns="http://www.w3.org/2000/svg">
<path d="M17.8929 12.5533C18.0114 12.7904 18.0308 13.0648 17.947 13.3163C17.8632 13.5677 17.6829 13.7756 17.4459 13.8943L9.44593 17.8943C9.30713 17.9636 9.1541 17.9997 8.99893 17.9997C8.84377 17.9997 8.69073 17.9636 8.55193 17.8943L0.551933 13.8943C0.323205 13.7709 0.151474 13.5634 0.0731168 13.3156C-0.00524035 13.0679 0.015931 12.7993 0.132146 12.5669C0.248362 12.3345 0.450493 12.1564 0.695723 12.0704C0.940954 11.9844 1.21002 11.9973 1.44593 12.1063L8.99893 15.8803L16.5529 12.1053C16.7901 11.9869 17.0645 11.9674 17.3159 12.0512C17.5674 12.135 17.7753 12.3153 17.8939 12.5523M17.8939 8.55227C18.0124 8.7894 18.0318 9.06384 17.948 9.31529C17.8642 9.56674 17.6839 9.77463 17.4469 9.89327L9.44693 13.8933C9.30813 13.9626 9.1551 13.9987 8.99993 13.9987C8.84477 13.9987 8.69173 13.9626 8.55293 13.8933L0.552933 9.89327C0.324205 9.76993 0.152474 9.5624 0.0741167 9.31462C-0.00424042 9.06685 0.0169312 8.79831 0.133147 8.56588C0.249362 8.33345 0.451493 8.15539 0.696723 8.06941C0.941954 7.98343 1.21102 7.9963 1.44693 8.10527L8.99893 11.8803L16.5529 8.10527C16.7901 7.98685 17.0645 7.96742 17.3159 8.05123C17.5674 8.13505 17.7753 8.31526 17.8939 8.55227ZM9.00693 0.000274658C9.04427 0.000274658 9.08127 0.00260796 9.11793 0.00727463L9.22893 0.0272746L9.31493 0.0512748L9.32693 0.0572746L9.33893 0.0592747L9.36793 0.0732746L9.41793 0.0922747L9.43393 0.101275L9.44593 0.106275L17.4459 4.10627C17.6118 4.18941 17.7513 4.31706 17.8488 4.47495C17.9462 4.63283 17.9979 4.81472 17.9979 5.00027C17.9979 5.18582 17.9462 5.36771 17.8488 5.5256C17.7513 5.68348 17.6118 5.81114 17.4459 5.89427L9.44593 9.89427C9.30713 9.96363 9.1541 9.99974 8.99893 9.99974C8.84377 9.99974 8.69073 9.96363 8.55193 9.89427L0.551933 5.89427C0.386052 5.81114 0.246572 5.68348 0.149098 5.5256C0.0516244 5.36771 0 5.18582 0 5.00027C0 4.81472 0.0516244 4.63283 0.149098 4.47495C0.246572 4.31706 0.386052 4.18941 0.551933 4.10627L8.55193 0.106275L8.56293 0.101275L8.58093 0.0912747L8.65893 0.0592747L8.66993 0.0572746L8.68293 0.0512748L8.76893 0.0272746L8.87893 0.00727463L8.93493 0.00227475L9.00693 0.000274658Z" fill="white"/>
</svg>
