<svg width="23" height="23" viewBox="0 0 23 23" fill="none" xmlns="http://www.w3.org/2000/svg">
<path fill-rule="evenodd" clip-rule="evenodd" d="M11.0823 0.523755C10.7669 0.626162 10.585 0.808218 10.4969 1.10548C10.4472 1.27189 10.4386 1.65876 10.4386 3.67846C10.4386 6.35384 10.4358 6.3197 10.7086 6.59279C11.0738 6.9569 11.9262 6.9569 12.2914 6.59279C12.5642 6.3197 12.5614 6.35384 12.5614 3.67846C12.5614 1.08984 12.5571 1.04432 12.3468 0.793995C12.1706 0.584914 11.9817 0.515221 11.5568 0.503842C11.3984 0.494903 11.2394 0.501572 11.0823 0.523755ZM4.04495 3.33426C3.82046 3.43666 3.48941 3.76095 3.37432 3.99137C3.31562 4.10655 3.2836 4.2335 3.28065 4.36278C3.27769 4.49205 3.30388 4.62034 3.35727 4.73808C3.46241 4.97277 6.7644 8.28961 7.02441 8.42189C7.39241 8.61106 7.77034 8.51861 8.15112 8.14596C8.52622 7.779 8.62568 7.38075 8.43529 7.00953C8.30315 6.74924 4.9898 3.44377 4.75536 3.33852C4.64334 3.28996 4.52267 3.26455 4.40059 3.26382C4.27851 3.26309 4.15755 3.28704 4.04495 3.33426ZM18.3952 3.35701C18.2205 3.43809 17.9221 3.71828 16.4984 5.14771C15.1899 6.46051 14.7906 6.88436 14.7267 7.02375C14.6736 7.13932 14.6462 7.26507 14.6464 7.39229C14.6467 7.51951 14.6745 7.64515 14.7281 7.76051C14.8276 7.97386 15.1544 8.30953 15.3746 8.42473C15.5976 8.54136 15.9287 8.53994 16.1603 8.42189C16.3976 8.29957 19.6797 5.01401 19.8019 4.77649C19.8601 4.6542 19.8906 4.52057 19.8913 4.38511C19.8921 4.24966 19.863 4.11571 19.8061 3.99279C19.6489 3.72957 19.4268 3.51115 19.1611 3.35844C19.0435 3.29485 18.912 3.26144 18.7783 3.26119C18.6447 3.26094 18.5131 3.29387 18.3952 3.35701ZM1.12658 10.4828C0.70744 10.6151 0.5 10.9493 0.5 11.4884C0.501421 12.0388 0.706019 12.3688 1.12516 12.494C1.29282 12.5438 1.66649 12.5523 3.69685 12.5523C5.81245 12.5523 6.0952 12.5452 6.26854 12.4883C6.39586 12.4464 6.51158 12.3752 6.60635 12.2803C6.70112 12.1854 6.77229 12.0696 6.81413 11.9421C6.93632 11.5652 6.87523 11.0304 6.68057 10.7659C6.60255 10.681 6.51081 10.6098 6.4092 10.5554L6.21454 10.4473L3.75226 10.4387C1.77021 10.433 1.2573 10.4416 1.12658 10.4828ZM16.821 10.4629C16.6289 10.5159 16.4552 10.6213 16.3194 10.7673C16.1248 11.0304 16.0637 11.5652 16.1859 11.9421C16.2683 12.1981 16.4757 12.4058 16.7315 12.4883C16.9048 12.5452 17.1875 12.5523 19.3032 12.5523C21.3335 12.5523 21.7072 12.5438 21.8748 12.494C22.294 12.3688 22.4986 12.0388 22.5 11.4884C22.5 10.9408 22.2911 10.6123 21.8578 10.4814C21.7114 10.4373 21.2525 10.4288 19.3088 10.4316C18.0045 10.4345 16.8849 10.4487 16.821 10.4629ZM7.02868 14.7356C6.85391 14.8166 6.55554 15.0968 5.13188 16.5263C3.8233 17.8391 3.42405 18.2629 3.36011 18.4023C3.30699 18.5179 3.2796 18.6436 3.27985 18.7708C3.28009 18.8981 3.30797 19.0237 3.36153 19.1391C3.46099 19.3524 3.78778 19.6881 4.00801 19.8033C4.23108 19.9199 4.56213 19.9185 4.79372 19.8004C5.031 19.6781 8.3131 16.3926 8.43529 16.155C8.49348 16.0327 8.52404 15.8991 8.52478 15.7637C8.52551 15.6282 8.49641 15.4943 8.43955 15.3713C8.2823 15.1081 8.0602 14.8897 7.7945 14.737C7.67691 14.6734 7.54541 14.64 7.41177 14.6397C7.27812 14.6395 7.1465 14.6724 7.02868 14.7356ZM15.4115 14.7128C15.187 14.8152 14.856 15.1395 14.7409 15.3699C14.6822 15.4851 14.6502 15.6121 14.6472 15.7413C14.6443 15.8706 14.6705 15.9989 14.7238 16.1166C14.829 16.3513 18.131 19.6682 18.391 19.8004C18.759 19.9896 19.1369 19.8972 19.5177 19.5245C19.8928 19.1576 19.9923 18.7593 19.8019 18.3881C19.6697 18.1278 16.3564 14.8223 16.1219 14.7171C16.0099 14.6685 15.8892 14.6431 15.7672 14.6424C15.6451 14.6416 15.5241 14.6656 15.4115 14.7128ZM11.1377 16.1508C10.9457 16.2049 10.7723 16.3107 10.6361 16.4566C10.4401 16.7211 10.4386 16.7396 10.4386 19.2969C10.4386 21.3337 10.4472 21.7078 10.4969 21.8756C10.6219 22.2952 10.953 22.5 11.5 22.5C12.047 22.5 12.3781 22.2952 12.5031 21.8756C12.5912 21.5741 12.5898 17.0013 12.5003 16.7382C12.4727 16.6321 12.4224 16.5333 12.3527 16.4488C12.2829 16.3643 12.1956 16.296 12.0967 16.2489C11.9405 16.1636 11.8495 16.1422 11.581 16.1323C11.433 16.1234 11.2844 16.1296 11.1377 16.1508Z" fill="white"/>
</svg>
