<svg width="22" height="21" viewBox="0 0 22 21" fill="none" xmlns="http://www.w3.org/2000/svg">
<path d="M20 19.5L14 13.5M2 8.5C2 9.41925 2.18106 10.3295 2.53284 11.1788C2.88463 12.0281 3.40024 12.7997 4.05025 13.4497C4.70026 14.0998 5.47194 14.6154 6.32122 14.9672C7.1705 15.3189 8.08075 15.5 9 15.5C9.91925 15.5 10.8295 15.3189 11.6788 14.9672C12.5281 14.6154 13.2997 14.0998 13.9497 13.4497C14.5998 12.7997 15.1154 12.0281 15.4672 11.1788C15.8189 10.3295 16 9.41925 16 8.5C16 7.58075 15.8189 6.6705 15.4672 5.82122C15.1154 4.97194 14.5998 4.20026 13.9497 3.55025C13.2997 2.90024 12.5281 2.38463 11.6788 2.03284C10.8295 1.68106 9.91925 1.5 9 1.5C8.08075 1.5 7.1705 1.68106 6.32122 2.03284C5.47194 2.38463 4.70026 2.90024 4.05025 3.55025C3.40024 4.20026 2.88463 4.97194 2.53284 5.82122C2.18106 6.6705 2 7.58075 2 8.5Z" stroke="#5B5B69" stroke-width="3" stroke-linecap="round" stroke-linejoin="round"/>
</svg>
