<svg width="20" height="26" viewBox="0 0 20 26" fill="none" xmlns="http://www.w3.org/2000/svg">
<path fill-rule="evenodd" clip-rule="evenodd" d="M4.86523 6.01587C4.86523 4.62664 5.40621 3.29431 6.36917 2.31197C7.33213 1.32964 8.63817 0.777771 10 0.777771C11.3618 0.777771 12.6679 1.32964 13.6308 2.31197C14.5938 3.29431 15.1348 4.62664 15.1348 6.01587V7.7619H16.2353C16.8716 7.76211 17.4852 8.00337 17.9571 8.43889C18.4289 8.87441 18.7254 9.47317 18.789 10.119L19.9871 22.3413C20.023 22.7055 19.9836 23.0734 19.8716 23.4212C19.7595 23.769 19.5771 24.0889 19.3363 24.3604C19.0956 24.6319 18.8016 24.8488 18.4736 24.9973C18.1455 25.1457 17.7906 25.2223 17.4317 25.2222H2.56656C2.20783 25.2221 1.85309 25.1453 1.52524 24.9967C1.19739 24.8482 0.903691 24.6312 0.663085 24.3598C0.42248 24.0883 0.240308 23.7685 0.128316 23.4208C0.0163232 23.0731 -0.0230043 22.7054 0.0128694 22.3413L1.21098 10.119C1.27462 9.47317 1.5711 8.87441 2.04294 8.43889C2.51478 8.00337 3.12835 7.76211 3.76468 7.7619H4.86523V6.01587ZM12.5674 6.01587V7.7619H7.43261V6.01587C7.43261 5.32125 7.70311 4.65509 8.18458 4.16392C8.66606 3.67275 9.31909 3.39682 10 3.39682C10.6809 3.39682 11.3339 3.67275 11.8154 4.16392C12.2969 4.65509 12.5674 5.32125 12.5674 6.01587ZM7.43261 12.5635C7.43261 12.2162 7.29737 11.8831 7.05663 11.6375C6.81589 11.3919 6.48938 11.254 6.14892 11.254C5.80847 11.254 5.48195 11.3919 5.24121 11.6375C5.00047 11.8831 4.86523 12.2162 4.86523 12.5635V14.3095C4.86523 15.6987 5.40621 17.0311 6.36917 18.0134C7.33213 18.9957 8.63817 19.5476 10 19.5476C11.3618 19.5476 12.6679 18.9957 13.6308 18.0134C14.5938 17.0311 15.1348 15.6987 15.1348 14.3095V12.5635C15.1348 12.2162 14.9995 11.8831 14.7588 11.6375C14.518 11.3919 14.1915 11.254 13.8511 11.254C13.5106 11.254 13.1841 11.3919 12.9434 11.6375C12.7026 11.8831 12.5674 12.2162 12.5674 12.5635V14.3095C12.5674 15.0041 12.2969 15.6703 11.8154 16.1615C11.3339 16.6526 10.6809 16.9286 10 16.9286C9.31909 16.9286 8.66606 16.6526 8.18458 16.1615C7.70311 15.6703 7.43261 15.0041 7.43261 14.3095V12.5635Z" fill="white"/>
</svg>
