<svg width="20" height="18" viewBox="0 0 20 18" fill="none" xmlns="http://www.w3.org/2000/svg">
<path fill-rule="evenodd" clip-rule="evenodd" d="M11.4286 0.428589C11.0497 0.428589 10.6863 0.579099 10.4184 0.847008C10.1505 1.11492 10 1.47828 10 1.85716V2.52716H10.7143C11.7562 2.52716 12.7555 2.94106 13.4922 3.67781C14.229 4.41456 14.6429 5.41381 14.6429 6.45573V6.67859H20V1.85716C20 1.47828 19.8495 1.11492 19.5816 0.847008C19.3137 0.579099 18.9503 0.428589 18.5714 0.428589H11.4286ZM11.2729 17.3872C11.4224 16.9542 11.4655 16.4917 11.3986 16.0386C12.3077 15.8778 13.1312 15.4019 13.7244 14.6945C14.3177 13.9871 14.6429 13.0933 14.6429 12.17V8.4643H20V16.1429C20 16.5218 19.8495 16.8851 19.5816 17.153C19.3137 17.4209 18.9503 17.5714 18.5714 17.5714H12.1429C11.8431 17.572 11.5466 17.5092 11.2729 17.3872ZM18.1014 3.55287C18.109 3.70109 18.0864 3.8493 18.0349 3.98849C17.9834 4.12768 17.9041 4.25494 17.8019 4.36253C17.6996 4.47012 17.5766 4.55579 17.4402 4.61433C17.3038 4.67287 17.157 4.70306 17.0086 4.70306C16.8602 4.70306 16.7133 4.67287 16.5769 4.61433C16.4405 4.55579 16.3175 4.47012 16.2153 4.36253C16.1131 4.25494 16.0338 4.12768 15.9823 3.98849C15.9308 3.8493 15.9081 3.70109 15.9157 3.55287C15.93 3.2727 16.0514 3.00872 16.2548 2.81548C16.4582 2.62224 16.728 2.51449 17.0086 2.51449C17.2891 2.51449 17.5589 2.62224 17.7623 2.81548C17.9657 3.00872 18.0871 3.2727 18.1014 3.55287ZM0 6.45716C0 5.88884 0.225765 5.3438 0.627628 4.94193C1.02949 4.54007 1.57454 4.3143 2.14286 4.3143H10.7143C11.2826 4.3143 11.8277 4.54007 12.2295 4.94193C12.6314 5.3438 12.8571 5.88884 12.8571 6.45716V12.1714C12.8571 12.7398 12.6314 13.2848 12.2295 13.6867C11.8277 14.0885 11.2826 14.3143 10.7143 14.3143H7.5V15.3857H8.57143C8.85559 15.3857 9.12811 15.4986 9.32904 15.6995C9.52997 15.9005 9.64286 16.173 9.64286 16.4572C9.64286 16.7413 9.52997 17.0138 9.32904 17.2148C9.12811 17.4157 8.85559 17.5286 8.57143 17.5286H4.28571C4.00155 17.5286 3.72903 17.4157 3.5281 17.2148C3.32717 17.0138 3.21429 16.7413 3.21429 16.4572C3.21429 16.173 3.32717 15.9005 3.5281 15.6995C3.72903 15.4986 4.00155 15.3857 4.28571 15.3857H5.35714V14.3143H2.14286C1.57454 14.3143 1.02949 14.0885 0.627628 13.6867C0.225765 13.2848 0 12.7398 0 12.1714L0 6.45716Z" fill="#171B2A"/>
</svg>
