<svg width="20" height="18" viewBox="0 0 20 18" fill="none" xmlns="http://www.w3.org/2000/svg">
<path d="M10.0015 4.76856C10.0015 5.78878 9.59626 6.76721 8.87485 7.48862C8.15345 8.21002 7.17501 8.61531 6.15479 8.61531C5.13457 8.61531 4.15614 8.21002 3.43473 7.48862C2.71333 6.76721 2.30805 5.78878 2.30805 4.76856C2.30805 3.74834 2.71333 2.7699 3.43473 2.0485C4.15614 1.32709 5.13457 0.921814 6.15479 0.921814C7.17501 0.921814 8.15345 1.32709 8.87485 2.0485C9.59626 2.7699 10.0015 3.74834 10.0015 4.76856ZM15.387 8.61531C16.2032 8.61531 16.9859 8.29108 17.563 7.71396C18.1402 7.13683 18.4644 6.35409 18.4644 5.53791C18.4644 4.72173 18.1402 3.93898 17.563 3.36186C16.9859 2.78474 16.2032 2.46051 15.387 2.46051C14.5708 2.46051 13.7881 2.78474 13.2109 3.36186C12.6338 3.93898 12.3096 4.72173 12.3096 5.53791C12.3096 6.35409 12.6338 7.13683 13.2109 7.71396C13.7881 8.29108 14.5708 8.61531 15.387 8.61531ZM13.8483 12.6067V12.4621C13.8494 11.6295 13.5793 10.8193 13.0789 10.154H18.1151C19.1553 10.154 20 10.9972 20 12.0389C20 12.0389 20 15.5394 15.3839 15.5394C14.4638 15.5394 13.7267 15.401 13.1374 15.1779C13.505 14.5044 13.7385 13.766 13.8252 13.0037C13.8344 12.9083 13.8406 12.8267 13.8437 12.759L13.8483 12.6067ZM12.3096 12.4621C12.3096 11.8499 12.0664 11.2629 11.6336 10.83C11.2007 10.3972 10.6137 10.154 10.0015 10.154H2.30805C1.69592 10.154 1.10885 10.3972 0.676012 10.83C0.243169 11.2629 0 11.8499 0 12.4621V12.5775C0 12.5775 0 17.0781 6.15479 17.0781C12.0203 17.0781 12.2957 12.9914 12.3096 12.6067V12.5775V12.4621Z" fill="white"/>
</svg>
