<svg width="16" height="23" viewBox="0 0 16 23" fill="none" xmlns="http://www.w3.org/2000/svg">
<path d="M0.8125 2.875C0.8125 2.1125 1.1154 1.38124 1.65457 0.842068C2.19373 0.302901 2.925 0 3.6875 0L12.3125 0C13.075 0 13.8063 0.302901 14.3454 0.842068C14.8846 1.38124 15.1875 2.1125 15.1875 2.875V20.125C15.1875 20.8875 14.8846 21.6188 14.3454 22.1579C13.8063 22.6971 13.075 23 12.3125 23H3.6875C2.925 23 2.19373 22.6971 1.65457 22.1579C1.1154 21.6188 0.8125 20.8875 0.8125 20.125V2.875ZM9.4375 18.6875C9.4375 18.3063 9.28605 17.9406 9.01647 17.671C8.74688 17.4015 8.38125 17.25 8 17.25C7.61875 17.25 7.25312 17.4015 6.98353 17.671C6.71395 17.9406 6.5625 18.3063 6.5625 18.6875C6.5625 19.0687 6.71395 19.4344 6.98353 19.704C7.25312 19.9735 7.61875 20.125 8 20.125C8.38125 20.125 8.74688 19.9735 9.01647 19.704C9.28605 19.4344 9.4375 19.0687 9.4375 18.6875Z" fill="#171B2A"/>
</svg>
