<svg width="17" height="20" viewBox="0 0 17 20" fill="none" xmlns="http://www.w3.org/2000/svg">
<path d="M16.75 10C16.7506 10.2481 16.6873 10.4922 16.5662 10.7084C16.4451 10.9246 16.2704 11.1057 16.0591 11.234L2.96091 19.2849C2.74008 19.4208 2.48715 19.4949 2.22825 19.4997C1.96935 19.5046 1.71387 19.4399 1.48818 19.3123C1.26465 19.1867 1.07843 19.0036 0.948694 18.7817C0.818956 18.5599 0.750374 18.3073 0.75 18.05V1.95005C0.750374 1.69273 0.818956 1.44015 0.948694 1.21828C1.07843 0.996422 1.26465 0.813285 1.48818 0.687707C1.71387 0.560146 1.96935 0.495433 2.22825 0.500251C2.48715 0.505068 2.74008 0.579241 2.96091 0.715109L16.0591 8.76597C16.2704 8.89428 16.4451 9.07536 16.5662 9.29161C16.6873 9.50785 16.7506 9.75189 16.75 10Z" fill="white"/>
</svg>
