<svg width="20" height="20" viewBox="0 0 20 20" fill="none" xmlns="http://www.w3.org/2000/svg">
<path d="M17.125 7.625H12.375V2.875C12.375 2.24511 12.1248 1.64102 11.6794 1.19562C11.234 0.750222 10.6299 0.5 10 0.5C9.37011 0.5 8.76602 0.750222 8.32062 1.19562C7.87522 1.64102 7.625 2.24511 7.625 2.875L7.70931 7.625H2.875C2.24511 7.625 1.64102 7.87522 1.19562 8.32062C0.750222 8.76602 0.5 9.37011 0.5 10C0.5 10.6299 0.750222 11.234 1.19562 11.6794C1.64102 12.1248 2.24511 12.375 2.875 12.375L7.70931 12.2907L7.625 17.125C7.625 17.7549 7.87522 18.359 8.32062 18.8044C8.76602 19.2498 9.37011 19.5 10 19.5C10.6299 19.5 11.234 19.2498 11.6794 18.8044C12.1248 18.359 12.375 17.7549 12.375 17.125V12.2907L17.125 12.375C17.7549 12.375 18.359 12.1248 18.8044 11.6794C19.2498 11.234 19.5 10.6299 19.5 10C19.5 9.37011 19.2498 8.76602 18.8044 8.32062C18.359 7.87522 17.7549 7.625 17.125 7.625Z" fill="white"/>
</svg>
