<svg width="45" height="46" viewBox="0 0 45 46" fill="none" xmlns="http://www.w3.org/2000/svg">
<path d="M19.8837 4.68605C17.9409 4.68605 16.0776 5.45785 14.7038 6.83166C13.3299 8.20547 12.5581 10.0688 12.5581 12.0116C12.5581 13.9545 13.3299 15.8178 14.7038 17.1916C16.0776 18.5654 17.9409 19.3372 19.8837 19.3372C21.8266 19.3372 23.6899 18.5654 25.0637 17.1916C26.4375 15.8178 27.2093 13.9545 27.2093 12.0116C27.2093 10.0688 26.4375 8.20547 25.0637 6.83166C23.6899 5.45785 21.8266 4.68605 19.8837 4.68605ZM8.37209 12.0116C8.37209 8.95855 9.58492 6.03053 11.7438 3.87168C13.9026 1.71283 16.8306 0.5 19.8837 0.5C22.9368 0.5 25.8648 1.71283 28.0237 3.87168C30.1825 6.03053 31.3953 8.95855 31.3953 12.0116C31.3953 15.0647 30.1825 17.9927 28.0237 20.1516C25.8648 22.3104 22.9368 23.5233 19.8837 23.5233C16.8306 23.5233 13.9026 22.3104 11.7438 20.1516C9.58492 17.9927 8.37209 15.0647 8.37209 12.0116ZM33.4884 26.6628C32.2195 26.6623 30.9722 26.9914 29.8688 27.6178C28.7653 28.2443 27.8435 29.1466 27.1936 30.2364C26.5437 31.3262 26.1881 32.5662 26.1615 33.8348C26.1349 35.1034 26.4382 36.3572 27.0419 37.4733L36.9733 27.544C35.9034 26.964 34.7053 26.661 33.4884 26.6628ZM39.9349 30.5035L30.0035 40.4328C31.3916 41.1853 32.9857 41.4692 34.5483 41.2421C36.1109 41.015 37.5582 40.2892 38.6747 39.1726C39.7912 38.0561 40.5171 36.6088 40.7442 35.0462C40.9713 33.4836 40.6874 31.8916 39.9349 30.5035ZM21.9767 33.9884C21.9767 32.4766 22.2745 30.9797 22.853 29.5831C23.4315 28.1864 24.2795 26.9174 25.3484 25.8484C26.4174 24.7795 27.6864 23.9315 29.0831 23.353C30.4797 22.7745 31.9766 22.4767 33.4884 22.4767C35.0001 22.4767 36.497 22.7745 37.8937 23.353C39.2903 23.9315 40.5594 24.7795 41.6283 25.8484C42.6973 26.9174 43.5452 28.1864 44.1237 29.5831C44.7022 30.9797 45 32.4766 45 33.9884C45 37.0414 43.7872 39.9695 41.6283 42.1283C39.4695 44.2872 36.5414 45.5 33.4884 45.5C30.4353 45.5 27.5073 44.2872 25.3484 42.1283C23.1896 39.9695 21.9767 37.0414 21.9767 33.9884ZM12.5581 29.8023C10.3377 29.8023 8.20825 30.6844 6.63818 32.2545C5.0681 33.8245 4.18605 35.954 4.18605 38.1744H18.9419V42.3605H0V38.1744C0 34.8438 1.32309 31.6496 3.67819 29.2945C6.0333 26.9394 9.22751 25.6163 12.5581 25.6163H18.8372V29.8023H12.5581Z" fill="#A43434"/>
</svg>
