<svg width="41" height="38" viewBox="0 0 41 38" fill="none" xmlns="http://www.w3.org/2000/svg">
<path d="M27.4375 35.5H13.5625M2 21.86V9.54C2 7.076 2 5.844 2.50412 4.9024C2.94812 4.073 3.65344 3.402 4.52525 2.9796C5.515 2.5 6.81 2.5 9.4 2.5H31.6C34.19 2.5 35.485 2.5 36.4724 2.9796C37.3442 3.402 38.0519 4.073 38.4959 4.9024C39 5.8418 39 7.0738 39 9.5334V21.8666C39 24.3262 39 25.556 38.4959 26.4954C38.0519 27.3242 37.3436 27.998 36.4724 28.4204C35.485 28.9 34.1923 28.9 31.6069 28.9H9.39306C6.80769 28.9 5.51269 28.9 4.52525 28.4204C3.65478 27.9979 2.94727 27.324 2.50412 26.4954C2 25.556 2 24.324 2 21.86Z" stroke="#3D79FC" stroke-width="4" stroke-linecap="round" stroke-linejoin="round"/>
</svg>
