<svg width="20" height="20" viewBox="0 0 20 20" fill="none" xmlns="http://www.w3.org/2000/svg">
<path fill-rule="evenodd" clip-rule="evenodd" d="M8.9247 0.453496C9.20595 0.172596 9.5872 0.0148163 9.9847 0.0148163C10.3822 0.0148163 10.7635 0.172596 11.0447 0.453496L13.8747 3.2815C14.0141 3.4208 14.1247 3.5862 14.2001 3.76825C14.2756 3.9503 14.3144 4.14543 14.3144 4.3425C14.3144 4.53956 14.2756 4.73469 14.2001 4.91674C14.1247 5.09879 14.0141 5.2642 13.8747 5.4035L11.0447 8.2315C10.7635 8.5124 10.3822 8.67018 9.9847 8.67018C9.5872 8.67018 9.20595 8.5124 8.9247 8.2315L6.0947 5.4035C5.95531 5.2642 5.84474 5.09879 5.7693 4.91674C5.69385 4.73469 5.65502 4.53956 5.65502 4.3425C5.65502 4.14543 5.69385 3.9503 5.7693 3.76825C5.84474 3.5862 5.95531 3.4208 6.0947 3.2815L8.9247 0.453496ZM14.5807 6.1105C14.72 5.97111 14.8854 5.86053 15.0675 5.78509C15.2495 5.70965 15.4446 5.67082 15.6417 5.67082C15.8388 5.67082 16.0339 5.70965 16.216 5.78509C16.398 5.86053 16.5634 5.97111 16.7027 6.1105L19.5307 8.9385C19.6701 9.0778 19.7807 9.2432 19.8561 9.42525C19.9316 9.6073 19.9704 9.80243 19.9704 9.9995C19.9704 10.1966 19.9316 10.3917 19.8561 10.5737C19.7807 10.7558 19.6701 10.9212 19.5307 11.0605L16.7027 13.8885C16.5634 14.0279 16.398 14.1385 16.216 14.2139C16.0339 14.2893 15.8388 14.3282 15.6417 14.3282C15.4446 14.3282 15.2495 14.2893 15.0675 14.2139C14.8854 14.1385 14.72 14.0279 14.5807 13.8885L11.7527 11.0605C11.6133 10.9212 11.5027 10.7558 11.4273 10.5737C11.3519 10.3917 11.313 10.1966 11.313 9.9995C11.313 9.80243 11.3519 9.6073 11.4273 9.42525C11.5027 9.2432 11.6133 9.0778 11.7527 8.9385L14.5807 6.1105ZM3.2667 6.1105C3.406 5.97111 3.57141 5.86053 3.75346 5.78509C3.93551 5.70965 4.13064 5.67082 4.3277 5.67082C4.52477 5.67082 4.7199 5.70965 4.90195 5.78509C5.084 5.86053 5.2494 5.97111 5.3887 6.1105L8.2167 8.9385C8.35609 9.0778 8.46667 9.2432 8.54211 9.42525C8.61755 9.6073 8.65638 9.80243 8.65638 9.9995C8.65638 10.1966 8.61755 10.3917 8.54211 10.5737C8.46667 10.7558 8.35609 10.9212 8.2167 11.0605L5.3887 13.8885C5.2494 14.0279 5.084 14.1385 4.90195 14.2139C4.7199 14.2893 4.52477 14.3282 4.3277 14.3282C4.13064 14.3282 3.93551 14.2893 3.75346 14.2139C3.57141 14.1385 3.406 14.0279 3.2667 13.8885L0.438703 11.0605C0.299314 10.9212 0.188738 10.7558 0.113296 10.5737C0.0378541 10.3917 -0.000976562 10.1966 -0.000976562 9.9995C-0.000976562 9.80243 0.0378541 9.6073 0.113296 9.42525C0.188738 9.2432 0.299314 9.0778 0.438703 8.9385L3.2667 6.1105ZM8.9237 11.7675C9.063 11.6281 9.2284 11.5175 9.41046 11.4421C9.59251 11.3666 9.78764 11.3278 9.9847 11.3278C10.1818 11.3278 10.3769 11.3666 10.559 11.4421C10.741 11.5175 10.9064 11.6281 11.0457 11.7675L13.8737 14.5955C14.1549 14.8768 14.3129 15.2583 14.3129 15.656C14.3129 16.0537 14.1549 16.4352 13.8737 16.7165L11.0457 19.5455C10.9064 19.6849 10.741 19.7955 10.559 19.8709C10.3769 19.9463 10.1818 19.9852 9.9847 19.9852C9.78764 19.9852 9.59251 19.9463 9.41046 19.8709C9.2284 19.7955 9.063 19.6849 8.9237 19.5455L6.0957 16.7165C5.8148 16.4352 5.65702 16.054 5.65702 15.6565C5.65702 15.259 5.8148 14.8777 6.0957 14.5965L8.9237 11.7675Z" fill="#3D79FC"/>
</svg>
